<mxfile host="app.diagrams.net" modified="2020-09-30T15:48:37.461Z" agent="5.0 (Macintosh)" etag="nCxcEO75ErSPYIXKb3en" version="13.7.6" type="github">
  <diagram id="ME-UoCXOoVdlkanik7TO" name="Page-1">
    <mxGraphModel dx="1426" dy="923" grid="1" gridSize="10" guides="1" tooltips="1" connect="1" arrows="1" fold="1" page="1" pageScale="1" pageWidth="1100" pageHeight="850" math="0" shadow="0">
      <root>
        <mxCell id="0" />
        <mxCell id="1" parent="0" />
        <mxCell id="GSqG7k4U5jTujWrdJpg2-53" value="" style="rounded=0;whiteSpace=wrap;html=1;align=center;fillColor=none;" parent="1" vertex="1">
          <mxGeometry x="780" y="660" width="320" height="190" as="geometry" />
        </mxCell>
        <mxCell id="GSqG7k4U5jTujWrdJpg2-3" style="edgeStyle=orthogonalEdgeStyle;rounded=0;orthogonalLoop=1;jettySize=auto;html=1;startArrow=classic;startFill=1;fillColor=#f8cecc;strokeColor=#b85450;" parent="1" source="GSqG7k4U5jTujWrdJpg2-1" target="GSqG7k4U5jTujWrdJpg2-65" edge="1">
          <mxGeometry relative="1" as="geometry">
            <Array as="points">
              <mxPoint x="290" y="290" />
            </Array>
          </mxGeometry>
        </mxCell>
        <mxCell id="GSqG7k4U5jTujWrdJpg2-4" value="&lt;div&gt;High Voltage&lt;/div&gt;&lt;div&gt;Power&lt;/div&gt;" style="edgeLabel;html=1;align=center;verticalAlign=middle;resizable=0;points=[];" parent="GSqG7k4U5jTujWrdJpg2-3" vertex="1" connectable="0">
          <mxGeometry x="-0.1041" relative="1" as="geometry">
            <mxPoint x="-3.6000000000000005" as="offset" />
          </mxGeometry>
        </mxCell>
        <mxCell id="GSqG7k4U5jTujWrdJpg2-5" style="edgeStyle=orthogonalEdgeStyle;rounded=0;orthogonalLoop=1;jettySize=auto;html=1;fillColor=#d5e8d4;strokeColor=#82b366;" parent="1" source="GSqG7k4U5jTujWrdJpg2-1" target="GSqG7k4U5jTujWrdJpg2-2" edge="1">
          <mxGeometry relative="1" as="geometry">
            <Array as="points">
              <mxPoint x="320" y="320" />
              <mxPoint x="320" y="320" />
            </Array>
          </mxGeometry>
        </mxCell>
        <mxCell id="GSqG7k4U5jTujWrdJpg2-6" value="&lt;div&gt;Voltage &amp;amp; Temp &lt;br&gt;&lt;/div&gt;&lt;div&gt;Sense&lt;/div&gt;" style="edgeLabel;html=1;align=center;verticalAlign=middle;resizable=0;points=[];" parent="GSqG7k4U5jTujWrdJpg2-5" vertex="1" connectable="0">
          <mxGeometry x="-0.2102" y="-1" relative="1" as="geometry">
            <mxPoint x="14.57" as="offset" />
          </mxGeometry>
        </mxCell>
        <mxCell id="GSqG7k4U5jTujWrdJpg2-7" style="edgeStyle=orthogonalEdgeStyle;rounded=0;orthogonalLoop=1;jettySize=auto;html=1;fillColor=#ffe6cc;strokeColor=#d79b00;" parent="1" source="GSqG7k4U5jTujWrdJpg2-1" target="GSqG7k4U5jTujWrdJpg2-11" edge="1">
          <mxGeometry relative="1" as="geometry">
            <mxPoint x="210" y="480" as="targetPoint" />
            <Array as="points">
              <mxPoint x="170" y="400" />
              <mxPoint x="170" y="400" />
            </Array>
          </mxGeometry>
        </mxCell>
        <mxCell id="GSqG7k4U5jTujWrdJpg2-8" value="Heat" style="edgeLabel;html=1;align=center;verticalAlign=middle;resizable=0;points=[];" parent="GSqG7k4U5jTujWrdJpg2-7" vertex="1" connectable="0">
          <mxGeometry x="-0.379" y="1" relative="1" as="geometry">
            <mxPoint y="26.57" as="offset" />
          </mxGeometry>
        </mxCell>
        <mxCell id="GSqG7k4U5jTujWrdJpg2-9" style="edgeStyle=orthogonalEdgeStyle;rounded=0;orthogonalLoop=1;jettySize=auto;html=1;fillColor=#ffe6cc;strokeColor=#d79b00;" parent="1" source="GSqG7k4U5jTujWrdJpg2-1" target="GSqG7k4U5jTujWrdJpg2-11" edge="1">
          <mxGeometry relative="1" as="geometry">
            <mxPoint x="110" y="460" as="targetPoint" />
            <Array as="points">
              <mxPoint x="110" y="460" />
              <mxPoint x="110" y="460" />
            </Array>
          </mxGeometry>
        </mxCell>
        <mxCell id="GSqG7k4U5jTujWrdJpg2-10" value="&lt;div&gt;Space&lt;/div&gt;&lt;div&gt;Requriments&lt;br&gt;&lt;/div&gt;" style="edgeLabel;html=1;align=center;verticalAlign=middle;resizable=0;points=[];" parent="GSqG7k4U5jTujWrdJpg2-9" vertex="1" connectable="0">
          <mxGeometry x="-0.6894" y="-2" relative="1" as="geometry">
            <mxPoint y="48.29" as="offset" />
          </mxGeometry>
        </mxCell>
        <mxCell id="GSqG7k4U5jTujWrdJpg2-17" style="edgeStyle=orthogonalEdgeStyle;rounded=0;orthogonalLoop=1;jettySize=auto;html=1;startArrow=classic;startFill=1;endArrow=none;endFill=0;fillColor=#ffe6cc;strokeColor=#d79b00;" parent="1" source="GSqG7k4U5jTujWrdJpg2-1" target="GSqG7k4U5jTujWrdJpg2-11" edge="1">
          <mxGeometry relative="1" as="geometry" />
        </mxCell>
        <mxCell id="GSqG7k4U5jTujWrdJpg2-18" value="Insulation" style="edgeLabel;html=1;align=center;verticalAlign=middle;resizable=0;points=[];" parent="GSqG7k4U5jTujWrdJpg2-17" vertex="1" connectable="0">
          <mxGeometry x="-0.6041" y="-1" relative="1" as="geometry">
            <mxPoint as="offset" />
          </mxGeometry>
        </mxCell>
        <mxCell id="3xZZkQ_043mxK-w47PND-4" style="edgeStyle=orthogonalEdgeStyle;rounded=0;orthogonalLoop=1;jettySize=auto;html=1;fillColor=#ffe6cc;strokeColor=#d79b00;" parent="1" source="GSqG7k4U5jTujWrdJpg2-1" target="GSqG7k4U5jTujWrdJpg2-11" edge="1">
          <mxGeometry relative="1" as="geometry">
            <Array as="points">
              <mxPoint x="190" y="400" />
              <mxPoint x="190" y="400" />
            </Array>
          </mxGeometry>
        </mxCell>
        <mxCell id="3xZZkQ_043mxK-w47PND-5" value="Fire" style="edgeLabel;html=1;align=center;verticalAlign=middle;resizable=0;points=[];" parent="3xZZkQ_043mxK-w47PND-4" vertex="1" connectable="0">
          <mxGeometry x="0.6738" y="-1" relative="1" as="geometry">
            <mxPoint y="-7.5" as="offset" />
          </mxGeometry>
        </mxCell>
        <mxCell id="GSqG7k4U5jTujWrdJpg2-1" value="&lt;div&gt;Lithium Battery Pack&lt;/div&gt;" style="rounded=1;whiteSpace=wrap;html=1;fillColor=#e1d5e7;strokeColor=#9673a6;" parent="1" vertex="1">
          <mxGeometry x="80" y="270" width="120" height="60" as="geometry" />
        </mxCell>
        <mxCell id="GSqG7k4U5jTujWrdJpg2-15" style="edgeStyle=orthogonalEdgeStyle;rounded=0;orthogonalLoop=1;jettySize=auto;html=1;startArrow=classic;startFill=1;fillColor=#dae8fc;strokeColor=#6c8ebf;" parent="1" source="GSqG7k4U5jTujWrdJpg2-2" target="GSqG7k4U5jTujWrdJpg2-13" edge="1">
          <mxGeometry relative="1" as="geometry" />
        </mxCell>
        <mxCell id="GSqG7k4U5jTujWrdJpg2-16" value="&lt;div&gt;Comm Interface&lt;/div&gt;&lt;div&gt;(CAN)&lt;br&gt;&lt;/div&gt;" style="edgeLabel;html=1;align=center;verticalAlign=middle;resizable=0;points=[];" parent="GSqG7k4U5jTujWrdJpg2-15" vertex="1" connectable="0">
          <mxGeometry x="-0.0756" y="-1" relative="1" as="geometry">
            <mxPoint as="offset" />
          </mxGeometry>
        </mxCell>
        <mxCell id="GSqG7k4U5jTujWrdJpg2-59" style="edgeStyle=orthogonalEdgeStyle;rounded=0;orthogonalLoop=1;jettySize=auto;html=1;startArrow=classic;startFill=1;endArrow=classic;endFill=1;fillColor=#f8cecc;strokeColor=#b85450;" parent="1" source="GSqG7k4U5jTujWrdJpg2-2" target="GSqG7k4U5jTujWrdJpg2-57" edge="1">
          <mxGeometry relative="1" as="geometry">
            <Array as="points">
              <mxPoint x="490" y="365" />
            </Array>
          </mxGeometry>
        </mxCell>
        <mxCell id="GSqG7k4U5jTujWrdJpg2-2" value="BMS" style="rounded=1;whiteSpace=wrap;html=1;fillColor=#e1d5e7;strokeColor=#9673a6;" parent="1" vertex="1">
          <mxGeometry x="430" y="270" width="120" height="60" as="geometry" />
        </mxCell>
        <mxCell id="GSqG7k4U5jTujWrdJpg2-61" style="edgeStyle=orthogonalEdgeStyle;rounded=0;orthogonalLoop=1;jettySize=auto;html=1;startArrow=none;startFill=0;endArrow=classic;endFill=1;fillColor=#ffe6cc;strokeColor=#d79b00;" parent="1" source="GSqG7k4U5jTujWrdJpg2-11" target="GSqG7k4U5jTujWrdJpg2-60" edge="1">
          <mxGeometry relative="1" as="geometry">
            <Array as="points">
              <mxPoint x="180" y="570" />
              <mxPoint x="180" y="570" />
            </Array>
          </mxGeometry>
        </mxCell>
        <mxCell id="GSqG7k4U5jTujWrdJpg2-62" value="Heat" style="edgeLabel;html=1;align=center;verticalAlign=middle;resizable=0;points=[];" parent="GSqG7k4U5jTujWrdJpg2-61" vertex="1" connectable="0">
          <mxGeometry x="0.2543" y="-2" relative="1" as="geometry">
            <mxPoint y="-10.34" as="offset" />
          </mxGeometry>
        </mxCell>
        <mxCell id="GSqG7k4U5jTujWrdJpg2-11" value="&lt;div&gt;Lithium Battery&lt;/div&gt;&lt;div&gt;Enclosure&lt;br&gt;&lt;/div&gt;" style="rounded=1;whiteSpace=wrap;html=1;fillColor=#d5e8d4;strokeColor=#82b366;" parent="1" vertex="1">
          <mxGeometry x="80" y="470" width="120" height="60" as="geometry" />
        </mxCell>
        <mxCell id="GSqG7k4U5jTujWrdJpg2-14" style="edgeStyle=orthogonalEdgeStyle;rounded=0;orthogonalLoop=1;jettySize=auto;html=1;fillColor=#f8cecc;strokeColor=#b85450;" parent="1" source="GSqG7k4U5jTujWrdJpg2-12" target="GSqG7k4U5jTujWrdJpg2-2" edge="1">
          <mxGeometry relative="1" as="geometry" />
        </mxCell>
        <mxCell id="GSqG7k4U5jTujWrdJpg2-19" value="&lt;div&gt;High Voltage&lt;/div&gt;&lt;div&gt;Power&lt;/div&gt;" style="edgeLabel;html=1;align=center;verticalAlign=middle;resizable=0;points=[];" parent="GSqG7k4U5jTujWrdJpg2-14" vertex="1" connectable="0">
          <mxGeometry x="-0.2348" y="-1" relative="1" as="geometry">
            <mxPoint as="offset" />
          </mxGeometry>
        </mxCell>
        <mxCell id="GSqG7k4U5jTujWrdJpg2-30" style="edgeStyle=orthogonalEdgeStyle;rounded=0;orthogonalLoop=1;jettySize=auto;html=1;startArrow=classic;startFill=1;endArrow=classic;endFill=1;fillColor=#dae8fc;strokeColor=#6c8ebf;" parent="1" source="GSqG7k4U5jTujWrdJpg2-12" target="GSqG7k4U5jTujWrdJpg2-13" edge="1">
          <mxGeometry relative="1" as="geometry">
            <Array as="points">
              <mxPoint x="740" y="150" />
            </Array>
          </mxGeometry>
        </mxCell>
        <mxCell id="GSqG7k4U5jTujWrdJpg2-31" value="&lt;div&gt;Charging Status&lt;/div&gt;&lt;div&gt;Communication&lt;br&gt;&lt;/div&gt;" style="edgeLabel;html=1;align=center;verticalAlign=middle;resizable=0;points=[];" parent="GSqG7k4U5jTujWrdJpg2-30" vertex="1" connectable="0">
          <mxGeometry x="-0.2637" relative="1" as="geometry">
            <mxPoint as="offset" />
          </mxGeometry>
        </mxCell>
        <mxCell id="3xZZkQ_043mxK-w47PND-7" style="edgeStyle=orthogonalEdgeStyle;rounded=0;orthogonalLoop=1;jettySize=auto;html=1;entryX=0.5;entryY=0;entryDx=0;entryDy=0;fillColor=#f8cecc;strokeColor=#b85450;" parent="1" source="GSqG7k4U5jTujWrdJpg2-12" target="3xZZkQ_043mxK-w47PND-6" edge="1">
          <mxGeometry relative="1" as="geometry" />
        </mxCell>
        <mxCell id="3xZZkQ_043mxK-w47PND-10" value="&lt;div&gt;High Voltage&lt;/div&gt;&lt;div&gt;Power&lt;br&gt;&lt;/div&gt;" style="edgeLabel;html=1;align=center;verticalAlign=middle;resizable=0;points=[];" parent="3xZZkQ_043mxK-w47PND-7" vertex="1" connectable="0">
          <mxGeometry x="0.0929" relative="1" as="geometry">
            <mxPoint as="offset" />
          </mxGeometry>
        </mxCell>
        <mxCell id="GSqG7k4U5jTujWrdJpg2-12" value="&lt;div&gt;Internal Charger&lt;/div&gt;" style="rounded=1;whiteSpace=wrap;html=1;fillColor=#e1d5e7;strokeColor=#9673a6;" parent="1" vertex="1">
          <mxGeometry x="430" y="120" width="120" height="60" as="geometry" />
        </mxCell>
        <mxCell id="GSqG7k4U5jTujWrdJpg2-21" style="edgeStyle=orthogonalEdgeStyle;rounded=0;orthogonalLoop=1;jettySize=auto;html=1;startArrow=classic;startFill=1;endArrow=classic;endFill=1;fillColor=#dae8fc;strokeColor=#6c8ebf;" parent="1" source="GSqG7k4U5jTujWrdJpg2-13" target="GSqG7k4U5jTujWrdJpg2-20" edge="1">
          <mxGeometry relative="1" as="geometry" />
        </mxCell>
        <mxCell id="GSqG7k4U5jTujWrdJpg2-22" value="Comm Interface" style="edgeLabel;html=1;align=center;verticalAlign=middle;resizable=0;points=[];" parent="GSqG7k4U5jTujWrdJpg2-21" vertex="1" connectable="0">
          <mxGeometry x="-0.0857" relative="1" as="geometry">
            <mxPoint x="10.57" as="offset" />
          </mxGeometry>
        </mxCell>
        <mxCell id="GSqG7k4U5jTujWrdJpg2-38" style="edgeStyle=orthogonalEdgeStyle;rounded=0;orthogonalLoop=1;jettySize=auto;html=1;startArrow=classic;startFill=1;endArrow=classic;endFill=1;fillColor=#e1d5e7;strokeColor=#9673a6;" parent="1" source="GSqG7k4U5jTujWrdJpg2-13" target="GSqG7k4U5jTujWrdJpg2-39" edge="1">
          <mxGeometry relative="1" as="geometry">
            <mxPoint x="780" y="90" as="targetPoint" />
          </mxGeometry>
        </mxCell>
        <mxCell id="GSqG7k4U5jTujWrdJpg2-13" value="&lt;div&gt;Communication Interface&lt;/div&gt;&lt;div&gt;(Embedded System)&lt;br&gt;&lt;/div&gt;" style="rounded=1;whiteSpace=wrap;html=1;fillColor=#d5e8d4;strokeColor=#82b366;" parent="1" vertex="1">
          <mxGeometry x="720" y="270" width="120" height="60" as="geometry" />
        </mxCell>
        <mxCell id="GSqG7k4U5jTujWrdJpg2-34" value="" style="edgeStyle=orthogonalEdgeStyle;rounded=0;orthogonalLoop=1;jettySize=auto;html=1;startArrow=classic;startFill=1;endArrow=classic;endFill=1;fillColor=#dae8fc;strokeColor=#6c8ebf;" parent="1" source="GSqG7k4U5jTujWrdJpg2-20" target="GSqG7k4U5jTujWrdJpg2-33" edge="1">
          <mxGeometry relative="1" as="geometry" />
        </mxCell>
        <mxCell id="GSqG7k4U5jTujWrdJpg2-35" style="edgeStyle=orthogonalEdgeStyle;rounded=0;orthogonalLoop=1;jettySize=auto;html=1;startArrow=classic;startFill=1;endArrow=classic;endFill=1;fillColor=#dae8fc;strokeColor=#6c8ebf;" parent="1" source="GSqG7k4U5jTujWrdJpg2-20" target="GSqG7k4U5jTujWrdJpg2-23" edge="1">
          <mxGeometry relative="1" as="geometry">
            <Array as="points">
              <mxPoint x="1030" y="440" />
            </Array>
          </mxGeometry>
        </mxCell>
        <mxCell id="GSqG7k4U5jTujWrdJpg2-36" value="&lt;div&gt;Control Signal&lt;/div&gt;&lt;div&gt;Speed Data&lt;br&gt;&lt;/div&gt;+Others" style="edgeLabel;html=1;align=center;verticalAlign=middle;resizable=0;points=[];" parent="GSqG7k4U5jTujWrdJpg2-35" vertex="1" connectable="0">
          <mxGeometry x="0.204" relative="1" as="geometry">
            <mxPoint as="offset" />
          </mxGeometry>
        </mxCell>
        <mxCell id="GSqG7k4U5jTujWrdJpg2-20" value="&lt;div&gt;Golf Cart&lt;/div&gt;&lt;div&gt;Existing ECU&lt;/div&gt;&lt;div&gt;[Vehicle Controller]&lt;br&gt;&lt;/div&gt;" style="rounded=1;whiteSpace=wrap;html=1;fillColor=#dae8fc;strokeColor=#6c8ebf;" parent="1" vertex="1">
          <mxGeometry x="970" y="270" width="120" height="60" as="geometry" />
        </mxCell>
        <mxCell id="GSqG7k4U5jTujWrdJpg2-24" style="edgeStyle=orthogonalEdgeStyle;rounded=0;orthogonalLoop=1;jettySize=auto;html=1;startArrow=classic;startFill=1;endArrow=classic;endFill=1;fillColor=#f8cecc;strokeColor=#b85450;" parent="1" source="GSqG7k4U5jTujWrdJpg2-23" target="GSqG7k4U5jTujWrdJpg2-2" edge="1">
          <mxGeometry relative="1" as="geometry" />
        </mxCell>
        <mxCell id="GSqG7k4U5jTujWrdJpg2-25" value="&lt;div&gt;High Voltage&lt;/div&gt;&lt;div&gt;Power&lt;/div&gt;" style="edgeLabel;html=1;align=center;verticalAlign=middle;resizable=0;points=[];" parent="GSqG7k4U5jTujWrdJpg2-24" vertex="1" connectable="0">
          <mxGeometry x="-0.3275" y="3" relative="1" as="geometry">
            <mxPoint x="3" y="-13.29" as="offset" />
          </mxGeometry>
        </mxCell>
        <mxCell id="GSqG7k4U5jTujWrdJpg2-28" value="" style="edgeStyle=orthogonalEdgeStyle;rounded=0;orthogonalLoop=1;jettySize=auto;html=1;startArrow=classic;startFill=1;endArrow=classic;endFill=1;fillColor=#f8cecc;strokeColor=#b85450;" parent="1" source="GSqG7k4U5jTujWrdJpg2-23" target="GSqG7k4U5jTujWrdJpg2-27" edge="1">
          <mxGeometry relative="1" as="geometry">
            <Array as="points">
              <mxPoint x="490" y="530" />
              <mxPoint x="490" y="530" />
            </Array>
          </mxGeometry>
        </mxCell>
        <mxCell id="GSqG7k4U5jTujWrdJpg2-29" value="&lt;div&gt;Controlled&lt;br&gt;&lt;/div&gt;&lt;div&gt;High Voltage&lt;/div&gt;&lt;div&gt;Power&lt;/div&gt;" style="edgeLabel;html=1;align=center;verticalAlign=middle;resizable=0;points=[];" parent="GSqG7k4U5jTujWrdJpg2-28" vertex="1" connectable="0">
          <mxGeometry x="-0.2659" relative="1" as="geometry">
            <mxPoint y="13.57" as="offset" />
          </mxGeometry>
        </mxCell>
        <mxCell id="GSqG7k4U5jTujWrdJpg2-23" value="Motor Controller" style="rounded=1;whiteSpace=wrap;html=1;fillColor=#dae8fc;strokeColor=#6c8ebf;" parent="1" vertex="1">
          <mxGeometry x="430" y="395" width="120" height="60" as="geometry" />
        </mxCell>
        <mxCell id="GSqG7k4U5jTujWrdJpg2-27" value="Motor(s)" style="rounded=1;whiteSpace=wrap;html=1;fillColor=#dae8fc;strokeColor=#6c8ebf;" parent="1" vertex="1">
          <mxGeometry x="430" y="540" width="120" height="60" as="geometry" />
        </mxCell>
        <mxCell id="GSqG7k4U5jTujWrdJpg2-33" value="&lt;div&gt;Existing&lt;br&gt;&lt;/div&gt;&lt;div&gt;Human Interface&lt;/div&gt;&lt;div&gt;-Pedals&lt;/div&gt;&lt;div&gt;-Power Control&lt;/div&gt;&lt;div&gt;-Information Display&lt;br&gt;&lt;/div&gt;" style="rounded=1;whiteSpace=wrap;html=1;align=center;fillColor=#dae8fc;strokeColor=#6c8ebf;" parent="1" vertex="1">
          <mxGeometry x="970" y="100" width="120" height="90" as="geometry" />
        </mxCell>
        <mxCell id="GSqG7k4U5jTujWrdJpg2-39" value="&lt;div&gt;Custom&lt;br&gt;&lt;/div&gt;&lt;div&gt;Software&lt;/div&gt;&lt;div&gt;(C/C++)&lt;br&gt;&lt;/div&gt;" style="rounded=1;whiteSpace=wrap;html=1;fillColor=#d5e8d4;strokeColor=#82b366;" parent="1" vertex="1">
          <mxGeometry x="720" y="60" width="120" height="60" as="geometry" />
        </mxCell>
        <mxCell id="GSqG7k4U5jTujWrdJpg2-40" value="&lt;div&gt;Custom&lt;/div&gt;&lt;div&gt;Component&lt;br&gt;&lt;/div&gt;" style="rounded=1;whiteSpace=wrap;html=1;fillColor=#d5e8d4;strokeColor=#82b366;" parent="1" vertex="1">
          <mxGeometry x="800" y="705" width="70" height="30" as="geometry" />
        </mxCell>
        <mxCell id="GSqG7k4U5jTujWrdJpg2-41" value="&lt;div&gt;Existing &lt;br&gt;&lt;/div&gt;&lt;div&gt;Comonent&lt;/div&gt;" style="rounded=1;whiteSpace=wrap;html=1;fillColor=#dae8fc;strokeColor=#6c8ebf;" parent="1" vertex="1">
          <mxGeometry x="800" y="800" width="70" height="30" as="geometry" />
        </mxCell>
        <mxCell id="GSqG7k4U5jTujWrdJpg2-42" value="&lt;h3&gt;Legend&lt;/h3&gt;" style="text;html=1;strokeColor=none;fillColor=none;align=center;verticalAlign=middle;whiteSpace=wrap;rounded=0;" parent="1" vertex="1">
          <mxGeometry x="920" y="670" width="40" height="20" as="geometry" />
        </mxCell>
        <mxCell id="GSqG7k4U5jTujWrdJpg2-43" value="" style="endArrow=classic;html=1;fillColor=#f8cecc;strokeColor=#b85450;" parent="1" edge="1">
          <mxGeometry width="50" height="50" relative="1" as="geometry">
            <mxPoint x="885" y="724.66" as="sourcePoint" />
            <mxPoint x="935" y="724.66" as="targetPoint" />
          </mxGeometry>
        </mxCell>
        <mxCell id="GSqG7k4U5jTujWrdJpg2-44" value="" style="endArrow=classic;html=1;fillColor=#dae8fc;strokeColor=#6c8ebf;" parent="1" edge="1">
          <mxGeometry width="50" height="50" relative="1" as="geometry">
            <mxPoint x="885" y="749.9999999999999" as="sourcePoint" />
            <mxPoint x="935" y="749.9999999999999" as="targetPoint" />
          </mxGeometry>
        </mxCell>
        <mxCell id="GSqG7k4U5jTujWrdJpg2-45" value="" style="endArrow=classic;html=1;fillColor=#e1d5e7;strokeColor=#9673a6;" parent="1" edge="1">
          <mxGeometry width="50" height="50" relative="1" as="geometry">
            <mxPoint x="885" y="779.6599999999999" as="sourcePoint" />
            <mxPoint x="935" y="779.6599999999999" as="targetPoint" />
          </mxGeometry>
        </mxCell>
        <mxCell id="GSqG7k4U5jTujWrdJpg2-46" value="Power" style="text;html=1;strokeColor=none;fillColor=none;align=center;verticalAlign=middle;whiteSpace=wrap;rounded=0;" parent="1" vertex="1">
          <mxGeometry x="975" y="715" width="60" height="20" as="geometry" />
        </mxCell>
        <mxCell id="GSqG7k4U5jTujWrdJpg2-47" value="Comm Interface" style="text;html=1;strokeColor=none;fillColor=none;align=center;verticalAlign=middle;whiteSpace=wrap;rounded=0;" parent="1" vertex="1">
          <mxGeometry x="960" y="740" width="90" height="20" as="geometry" />
        </mxCell>
        <mxCell id="GSqG7k4U5jTujWrdJpg2-48" value="Software Interface" style="text;html=1;strokeColor=none;fillColor=none;align=center;verticalAlign=middle;whiteSpace=wrap;rounded=0;" parent="1" vertex="1">
          <mxGeometry x="952.5" y="770" width="105" height="20" as="geometry" />
        </mxCell>
        <mxCell id="GSqG7k4U5jTujWrdJpg2-49" value="" style="endArrow=classic;html=1;fillColor=#ffe6cc;strokeColor=#d79b00;" parent="1" edge="1">
          <mxGeometry width="50" height="50" relative="1" as="geometry">
            <mxPoint x="885" y="809.6599999999999" as="sourcePoint" />
            <mxPoint x="935" y="809.6599999999999" as="targetPoint" />
          </mxGeometry>
        </mxCell>
        <mxCell id="GSqG7k4U5jTujWrdJpg2-50" value="Physical" style="text;html=1;strokeColor=none;fillColor=none;align=center;verticalAlign=middle;whiteSpace=wrap;rounded=0;" parent="1" vertex="1">
          <mxGeometry x="952.5" y="800" width="105" height="20" as="geometry" />
        </mxCell>
        <mxCell id="GSqG7k4U5jTujWrdJpg2-51" value="&lt;font style=&quot;font-size: 11px&quot;&gt;Off The Shelf Component&lt;br&gt;&lt;/font&gt;" style="rounded=1;whiteSpace=wrap;html=1;fillColor=#e1d5e7;strokeColor=#9673a6;" parent="1" vertex="1">
          <mxGeometry x="800" y="750" width="70" height="30" as="geometry" />
        </mxCell>
        <mxCell id="GSqG7k4U5jTujWrdJpg2-58" style="edgeStyle=orthogonalEdgeStyle;rounded=0;orthogonalLoop=1;jettySize=auto;html=1;startArrow=none;startFill=0;endArrow=classic;endFill=1;fillColor=#f8cecc;strokeColor=#b85450;" parent="1" source="GSqG7k4U5jTujWrdJpg2-57" target="GSqG7k4U5jTujWrdJpg2-13" edge="1">
          <mxGeometry relative="1" as="geometry">
            <Array as="points">
              <mxPoint x="780" y="365" />
            </Array>
          </mxGeometry>
        </mxCell>
        <mxCell id="3xZZkQ_043mxK-w47PND-1" value="&lt;div&gt;5V/3V3&lt;/div&gt;&lt;div&gt;Power&lt;br&gt;&lt;/div&gt;" style="edgeLabel;html=1;align=center;verticalAlign=middle;resizable=0;points=[];" parent="GSqG7k4U5jTujWrdJpg2-58" vertex="1" connectable="0">
          <mxGeometry x="-0.0824" y="-3" relative="1" as="geometry">
            <mxPoint x="-8" y="-3" as="offset" />
          </mxGeometry>
        </mxCell>
        <mxCell id="GSqG7k4U5jTujWrdJpg2-57" value="LV&amp;nbsp; Power Supply" style="rounded=1;whiteSpace=wrap;html=1;align=center;fillColor=#e1d5e7;strokeColor=#9673a6;" parent="1" vertex="1">
          <mxGeometry x="610" y="350" width="90" height="30" as="geometry" />
        </mxCell>
        <mxCell id="GSqG7k4U5jTujWrdJpg2-63" style="edgeStyle=orthogonalEdgeStyle;rounded=0;orthogonalLoop=1;jettySize=auto;html=1;startArrow=none;startFill=0;endArrow=classic;endFill=1;fillColor=#ffe6cc;strokeColor=#d79b00;" parent="1" source="GSqG7k4U5jTujWrdJpg2-60" target="GSqG7k4U5jTujWrdJpg2-11" edge="1">
          <mxGeometry relative="1" as="geometry">
            <Array as="points">
              <mxPoint x="110" y="570" />
              <mxPoint x="110" y="570" />
            </Array>
          </mxGeometry>
        </mxCell>
        <mxCell id="GSqG7k4U5jTujWrdJpg2-64" value="&lt;div&gt;Human&lt;/div&gt;&lt;div&gt;Safety&lt;br&gt;&lt;/div&gt;" style="edgeLabel;html=1;align=center;verticalAlign=middle;resizable=0;points=[];" parent="GSqG7k4U5jTujWrdJpg2-63" vertex="1" connectable="0">
          <mxGeometry x="0.1611" y="-1" relative="1" as="geometry">
            <mxPoint x="-1" y="16.67" as="offset" />
          </mxGeometry>
        </mxCell>
        <mxCell id="3xZZkQ_043mxK-w47PND-2" style="edgeStyle=orthogonalEdgeStyle;rounded=0;orthogonalLoop=1;jettySize=auto;html=1;fillColor=#ffe6cc;strokeColor=#d79b00;" parent="1" source="GSqG7k4U5jTujWrdJpg2-60" target="GSqG7k4U5jTujWrdJpg2-11" edge="1">
          <mxGeometry relative="1" as="geometry" />
        </mxCell>
        <mxCell id="3xZZkQ_043mxK-w47PND-3" value="Weather" style="edgeLabel;html=1;align=center;verticalAlign=middle;resizable=0;points=[];" parent="3xZZkQ_043mxK-w47PND-2" vertex="1" connectable="0">
          <mxGeometry x="0.2202" y="1" relative="1" as="geometry">
            <mxPoint as="offset" />
          </mxGeometry>
        </mxCell>
        <mxCell id="GSqG7k4U5jTujWrdJpg2-60" value="The Enviroment" style="rounded=1;whiteSpace=wrap;html=1;fillColor=#dae8fc;strokeColor=#6c8ebf;" parent="1" vertex="1">
          <mxGeometry x="80" y="610" width="120" height="60" as="geometry" />
        </mxCell>
        <mxCell id="GSqG7k4U5jTujWrdJpg2-66" style="edgeStyle=orthogonalEdgeStyle;rounded=0;orthogonalLoop=1;jettySize=auto;html=1;startArrow=classic;startFill=1;endArrow=classic;endFill=1;fillColor=#f8cecc;strokeColor=#b85450;" parent="1" source="GSqG7k4U5jTujWrdJpg2-65" target="GSqG7k4U5jTujWrdJpg2-2" edge="1">
          <mxGeometry relative="1" as="geometry">
            <Array as="points">
              <mxPoint x="330" y="290" />
            </Array>
          </mxGeometry>
        </mxCell>
        <mxCell id="GSqG7k4U5jTujWrdJpg2-67" value="&lt;div&gt;High Voltage&lt;/div&gt;&lt;div&gt;Power&lt;/div&gt;" style="edgeLabel;html=1;align=center;verticalAlign=middle;resizable=0;points=[];" parent="GSqG7k4U5jTujWrdJpg2-66" vertex="1" connectable="0">
          <mxGeometry x="0.0257" y="-1" relative="1" as="geometry">
            <mxPoint x="8.4" as="offset" />
          </mxGeometry>
        </mxCell>
        <mxCell id="GSqG7k4U5jTujWrdJpg2-65" value="&lt;div&gt;Kill Switch&lt;/div&gt;&lt;div&gt;&amp;amp;&lt;/div&gt;&lt;div&gt;Fuse&lt;br&gt;&lt;/div&gt;" style="rounded=1;whiteSpace=wrap;html=1;fillColor=#d5e8d4;align=center;strokeColor=#82b366;" parent="1" vertex="1">
          <mxGeometry x="250" y="200" width="120" height="60" as="geometry" />
        </mxCell>
        <mxCell id="GSqG7k4U5jTujWrdJpg2-68" value="" style="endArrow=classic;html=1;fillColor=#ffe6cc;strokeColor=#d79b00;" parent="1" target="GSqG7k4U5jTujWrdJpg2-65" edge="1">
          <mxGeometry width="50" height="50" relative="1" as="geometry">
            <mxPoint x="310" y="180" as="sourcePoint" />
            <mxPoint x="340" y="110" as="targetPoint" />
          </mxGeometry>
        </mxCell>
        <mxCell id="GSqG7k4U5jTujWrdJpg2-69" value="Reset" style="edgeLabel;html=1;align=center;verticalAlign=middle;resizable=0;points=[];" parent="GSqG7k4U5jTujWrdJpg2-68" vertex="1" connectable="0">
          <mxGeometry x="-0.392" relative="1" as="geometry">
            <mxPoint y="-10.5" as="offset" />
          </mxGeometry>
        </mxCell>
        <mxCell id="3xZZkQ_043mxK-w47PND-8" style="edgeStyle=orthogonalEdgeStyle;rounded=0;orthogonalLoop=1;jettySize=auto;html=1;fillColor=#ffe6cc;strokeColor=#d79b00;" parent="1" source="3xZZkQ_043mxK-w47PND-6" target="GSqG7k4U5jTujWrdJpg2-1" edge="1">
          <mxGeometry relative="1" as="geometry" />
        </mxCell>
        <mxCell id="3xZZkQ_043mxK-w47PND-9" value="Heat" style="edgeLabel;html=1;align=center;verticalAlign=middle;resizable=0;points=[];" parent="3xZZkQ_043mxK-w47PND-8" vertex="1" connectable="0">
          <mxGeometry x="-0.24" relative="1" as="geometry">
            <mxPoint as="offset" />
          </mxGeometry>
        </mxCell>
        <mxCell id="3xZZkQ_043mxK-w47PND-6" value="&lt;div&gt;PTC&lt;/div&gt;&lt;div&gt;Heater&lt;br&gt;&lt;/div&gt;" style="rounded=1;whiteSpace=wrap;html=1;fillColor=#d5e8d4;strokeColor=#82b366;" parent="1" vertex="1">
          <mxGeometry x="80" y="170" width="120" height="60" as="geometry" />
        </mxCell>
      </root>
    </mxGraphModel>
  </diagram>
</mxfile>
